<svg viewBox="0 0 274 77" fill="none" xmlns="http://www.w3.org/2000/svg">
    <g clip-path="url(#clip0_3021_34380)">
        <path
            d="M42.9136 12.5834H26.1172C25.5559 12.5834 25.1062 13.0633 25.094 13.6599C24.7546 30.4286 16.5021 46.3442 2.29785 57.6173C1.84688 57.9749 1.74415 58.6474 2.07384 59.1316L11.9011 73.577C12.2355 74.0687 12.8868 74.1796 13.3454 73.8185C22.227 66.8158 29.3708 58.3682 34.5154 49.0048C39.66 58.3682 46.8042 66.8158 55.6858 73.8185C56.1439 74.1796 56.7953 74.0687 57.1301 73.577L66.9573 59.1316C67.2866 58.6474 67.1839 57.9749 66.7333 57.6173C52.5286 46.3442 44.2761 30.4286 43.9372 13.6599C43.925 13.0633 43.4748 12.5834 42.9136 12.5834Z"
            fill="black" />
        <path
            d="M66.4449 23.0425L64.6553 17.5037C64.2913 16.3793 63.4047 15.5034 62.2761 15.1571L56.7204 13.446C55.9538 13.2097 55.9457 12.1239 56.7102 11.8775L62.2375 10.0849C63.36 9.72024 64.2365 8.83006 64.5822 7.70151L66.2883 2.13631C66.5242 1.36631 67.6081 1.35815 67.8562 2.12411L69.6457 7.66278C70.0097 8.78724 70.8964 9.66319 72.0249 10.0115L77.5807 11.7206C78.3472 11.9569 78.3554 13.0426 77.5908 13.2912L72.0636 15.0838C70.9411 15.4463 70.0646 16.3365 69.7189 17.4671L68.0127 23.0303C67.7769 23.8003 66.693 23.8084 66.4449 23.0425Z"
            fill="black" />
    </g>
    <path
        d="M111.539 56.6547C111.234 56.6547 111.035 56.502 110.944 56.1967L109.57 51.7088C109.509 51.5867 109.433 51.5256 109.341 51.5256H98.0755C97.9839 51.5256 97.9076 51.5867 97.8465 51.7088L96.5184 56.1967C96.4269 56.502 96.2284 56.6547 95.9231 56.6547H90.1072C89.924 56.6547 89.7866 56.6089 89.695 56.5173C89.6034 56.3952 89.5881 56.2272 89.6492 56.0135L99.5409 25.0561C99.6325 24.7508 99.8309 24.5982 100.136 24.5982H107.326C107.631 24.5982 107.83 24.7508 107.921 25.0561L117.813 56.0135C117.844 56.0746 117.859 56.1509 117.859 56.2425C117.859 56.5173 117.691 56.6547 117.355 56.6547H111.539ZM99.4951 46.2592C99.4646 46.4424 99.5256 46.534 99.6783 46.534H107.738C107.921 46.534 107.982 46.4424 107.921 46.2592L103.8 32.6581C103.769 32.536 103.724 32.4902 103.662 32.5207C103.601 32.5207 103.556 32.5665 103.525 32.6581L99.4951 46.2592ZM133.196 32.7955C134.295 32.7955 135.165 33.0092 135.806 33.4366C136.05 33.5587 136.142 33.7877 136.081 34.1235L135.119 39.3442C135.088 39.7105 134.875 39.8174 134.478 39.6647C134.02 39.5121 133.486 39.4358 132.875 39.4358C132.631 39.4358 132.295 39.4663 131.867 39.5274C130.768 39.6189 129.837 40.0311 129.074 40.7638C128.311 41.466 127.929 42.4124 127.929 43.6031V56.1051C127.929 56.2578 127.868 56.3952 127.746 56.5173C127.654 56.6089 127.532 56.6547 127.38 56.6547H122.022C121.869 56.6547 121.732 56.6089 121.609 56.5173C121.518 56.3952 121.472 56.2578 121.472 56.1051V33.6656C121.472 33.5129 121.518 33.3908 121.609 33.2992C121.732 33.1771 121.869 33.1161 122.022 33.1161H127.38C127.532 33.1161 127.654 33.1771 127.746 33.2992C127.868 33.3908 127.929 33.5129 127.929 33.6656V35.4058C127.929 35.4974 127.96 35.5585 128.021 35.589C128.082 35.6195 128.128 35.6043 128.158 35.5432C129.41 33.7114 131.089 32.7955 133.196 32.7955ZM152.309 33.6656C152.309 33.5129 152.355 33.3908 152.447 33.2992C152.569 33.1771 152.706 33.1161 152.859 33.1161H158.217C158.369 33.1161 158.492 33.1771 158.583 33.2992C158.705 33.3908 158.766 33.5129 158.766 33.6656V54.5481C158.766 58.5475 157.606 61.4021 155.286 63.1118C152.996 64.8214 150.035 65.6763 146.402 65.6763C145.333 65.6763 144.142 65.5999 142.83 65.4473C142.524 65.4168 142.372 65.2183 142.372 64.852L142.555 60.1351C142.555 59.7382 142.769 59.5703 143.196 59.6313C144.295 59.8145 145.303 59.9061 146.218 59.9061C148.172 59.9061 149.668 59.4787 150.706 58.6238C151.775 57.769 152.309 56.3952 152.309 54.5023C152.309 54.4107 152.279 54.3649 152.218 54.3649C152.157 54.3344 152.096 54.3497 152.034 54.4107C150.874 55.6624 149.18 56.2883 146.951 56.2883C144.967 56.2883 143.135 55.8151 141.456 54.8687C139.807 53.8917 138.632 52.3347 137.93 50.1976C137.472 48.7932 137.243 46.9767 137.243 44.748C137.243 42.3666 137.517 40.428 138.067 38.932C138.708 37.0697 139.792 35.5737 141.318 34.4441C142.845 33.3145 144.616 32.7497 146.631 32.7497C148.981 32.7497 150.783 33.4519 152.034 34.8563C152.096 34.9173 152.157 34.9479 152.218 34.9479C152.279 34.9173 152.309 34.8563 152.309 34.7647V33.6656ZM151.943 48.4574C152.187 47.5415 152.309 46.2897 152.309 44.7022C152.309 43.7558 152.279 43.023 152.218 42.504C152.157 41.985 152.05 41.4965 151.897 41.0386C151.622 40.2143 151.164 39.5579 150.523 39.0694C149.882 38.5504 149.088 38.2909 148.142 38.2909C147.226 38.2909 146.447 38.5504 145.806 39.0694C145.165 39.5579 144.692 40.2143 144.387 41.0386C143.959 41.9545 143.746 43.1909 143.746 44.748C143.746 46.4577 143.929 47.6789 144.295 48.4116C144.57 49.2359 145.043 49.9075 145.715 50.4265C146.417 50.915 147.241 51.1593 148.188 51.1593C149.165 51.1593 149.974 50.915 150.615 50.4265C151.256 49.9075 151.699 49.2511 151.943 48.4574ZM184.213 42.4582C184.396 43.6184 184.457 44.9159 184.396 46.3508C184.366 46.7172 184.167 46.9003 183.801 46.9003H169.65C169.467 46.9003 169.406 46.9767 169.467 47.1293C169.559 47.7399 169.726 48.3505 169.971 48.9611C170.764 50.6708 172.383 51.5256 174.825 51.5256C176.779 51.4951 178.321 50.7013 179.45 49.1443C179.572 48.9611 179.71 48.8695 179.862 48.8695C179.954 48.8695 180.061 48.9306 180.183 49.0527L183.48 52.3041C183.633 52.4568 183.709 52.5942 183.709 52.7163C183.709 52.7774 183.648 52.8995 183.526 53.0827C182.518 54.3344 181.221 55.3113 179.633 56.0135C178.046 56.6852 176.306 57.021 174.413 57.021C171.787 57.021 169.559 56.4257 167.727 55.235C165.925 54.0444 164.628 52.3805 163.834 50.2434C163.193 48.7169 162.872 46.7172 162.872 44.2442C162.872 42.5651 163.101 41.0844 163.559 39.8021C164.262 37.6345 165.483 35.9096 167.223 34.6273C168.994 33.345 171.085 32.7039 173.497 32.7039C176.55 32.7039 178.992 33.5893 180.824 35.36C182.686 37.1307 183.816 39.4968 184.213 42.4582ZM173.543 38.2909C171.619 38.2909 170.352 39.1915 169.742 40.9928C169.62 41.3897 169.513 41.8782 169.421 42.4582C169.421 42.6109 169.497 42.6872 169.65 42.6872H177.573C177.756 42.6872 177.817 42.6109 177.756 42.4582C177.603 41.5729 177.527 41.1454 177.527 41.176C177.252 40.2601 176.764 39.5579 176.061 39.0694C175.39 38.5504 174.55 38.2909 173.543 38.2909ZM200.649 32.7497C203.091 32.7497 205.06 33.4977 206.556 34.9937C208.052 36.4896 208.8 38.5199 208.8 41.0844V56.1051C208.8 56.2578 208.739 56.3952 208.617 56.5173C208.525 56.6089 208.403 56.6547 208.251 56.6547H202.893C202.74 56.6547 202.603 56.6089 202.48 56.5173C202.389 56.3952 202.343 56.2578 202.343 56.1051V42.4124C202.343 41.1912 201.992 40.199 201.29 39.4358C200.618 38.6725 199.717 38.2909 198.588 38.2909C197.458 38.2909 196.542 38.6725 195.84 39.4358C195.169 40.199 194.833 41.1912 194.833 42.4124V56.1051C194.833 56.2578 194.772 56.3952 194.65 56.5173C194.558 56.6089 194.436 56.6547 194.283 56.6547H188.925C188.772 56.6547 188.635 56.6089 188.513 56.5173C188.421 56.3952 188.376 56.2578 188.376 56.1051V33.6656C188.376 33.5129 188.421 33.3908 188.513 33.2992C188.635 33.1771 188.772 33.1161 188.925 33.1161H194.283C194.436 33.1161 194.558 33.1771 194.65 33.2992C194.772 33.3908 194.833 33.5129 194.833 33.6656V35.2684C194.833 35.36 194.863 35.4211 194.924 35.4516C194.985 35.4821 195.031 35.4669 195.062 35.4058C196.313 33.6351 198.176 32.7497 200.649 32.7497ZM226.929 37.7413C226.929 37.894 226.868 38.0314 226.746 38.1535C226.654 38.2451 226.532 38.2909 226.38 38.2909H221.983C221.831 38.2909 221.754 38.3672 221.754 38.5199V48.2284C221.754 49.2359 221.953 49.9839 222.35 50.4723C222.777 50.9608 223.449 51.2051 224.365 51.2051H225.876C226.029 51.2051 226.151 51.2661 226.242 51.3882C226.364 51.4798 226.425 51.602 226.425 51.7546V56.1051C226.425 56.441 226.242 56.6394 225.876 56.7005C224.594 56.7615 223.678 56.792 223.128 56.792C220.594 56.792 218.701 56.3799 217.45 55.5556C216.198 54.7007 215.557 53.1132 215.526 50.7929V38.5199C215.526 38.3672 215.45 38.2909 215.297 38.2909H212.687C212.534 38.2909 212.397 38.2451 212.275 38.1535C212.183 38.0314 212.137 37.894 212.137 37.7413V33.6656C212.137 33.5129 212.183 33.3908 212.275 33.2992C212.397 33.1771 212.534 33.1161 212.687 33.1161H215.297C215.45 33.1161 215.526 33.0397 215.526 32.8871V27.4375C215.526 27.2848 215.572 27.1627 215.664 27.0711C215.786 26.949 215.923 26.8879 216.076 26.8879H221.205C221.358 26.8879 221.48 26.949 221.571 27.0711C221.693 27.1627 221.754 27.2848 221.754 27.4375V32.8871C221.754 33.0397 221.831 33.1161 221.983 33.1161H226.38C226.532 33.1161 226.654 33.1771 226.746 33.2992C226.868 33.3908 226.929 33.5129 226.929 33.6656V37.7413ZM239.481 56.6547C239.267 56.6547 239.114 56.5936 239.023 56.4715C238.931 56.3494 238.946 56.1967 239.068 56.0135L247.953 40.7638C248.014 40.6722 248.014 40.5806 247.953 40.489L239.068 25.2393L238.977 24.9646C238.977 24.7203 239.145 24.5982 239.481 24.5982H245.297C245.602 24.5982 245.831 24.7203 245.984 24.9646L251.937 35.4516C252.028 35.6348 252.12 35.6348 252.212 35.4516L258.165 24.9646C258.318 24.7203 258.547 24.5982 258.852 24.5982H264.622C264.836 24.5982 264.988 24.6593 265.08 24.7814C265.172 24.9035 265.156 25.0561 265.034 25.2393L256.15 40.489C256.119 40.5806 256.119 40.6722 256.15 40.7638L265.034 56.0135L265.126 56.2883C265.126 56.5325 264.958 56.6547 264.622 56.6547H258.852C258.547 56.6547 258.318 56.5325 258.165 56.2883L252.212 45.8471C252.12 45.6639 252.028 45.6639 251.937 45.8471L245.938 56.2883C245.785 56.5325 245.556 56.6547 245.251 56.6547H239.481Z"
        fill="black" />
    <defs>
        <clipPath id="clip0_3021_34380">
            <rect width="78.5537" height="76.3093" fill="white" />
        </clipPath>
    </defs>
</svg>